#!OML:ASF F:\VICON\USERDATA\INSTALL\rory3\rory3.ASF
:FULLY-SPECIFIED
:DEGREES
150
root -0.617945 17.4345 5.38182 -4.9968 -82.4278 22.7141
lowerback -9.19272 2.19296 7.92535
upperback -11.5421 1.96622 -0.746368
thorax -6.81766 0.0826959 -5.1244
lowerneck -6.17532 17.0672 13.3892
upperneck 14.9993 21.3031 1.52973
head 6.85351 11.118 0.377577
rclavicle 7.35503e-015 -6.36111e-015
rhumerus 8.75446 -23.9607 18.2079
rradius 114.935
rwrist -59.1683
rhand -6.37111 -47.5295
rfingers 7.12502
rthumb 19.4756 -76.5741
lclavicle 7.35503e-015 -6.36111e-015
lhumerus 35.3457 36.1089 -4.13631
lradius 30.7585
lwrist 35.6313
lhand -22.3005 -20.5105
lfingers 7.12502
lthumb 4.11855 9.4294
rfemur -11.3086 4.9208 -7.97162
rtibia 23.6674
rfoot -0.552527 -32.1337
rtoes 11.914
lfemur -17.158 3.23507 -34.0018
ltibia 12.5638
lfoot -13.5695 6.88136
ltoes 20.5792
151
root -0.609439 17.4294 5.38778 -5.73744 -82.3806 23.4021
lowerback -9.1335 2.16042 7.77758
upperback -11.4892 1.93982 -0.712321
thorax -6.79666 0.0875733 -5.00719
lowerneck -6.32773 17.1932 13.041
upperneck 15.257 21.4233 1.95753
head 6.88273 11.1935 0.578106
rclavicle -2.78299e-015 -1.82882e-014
rhumerus 8.96968 -24.0566 17.8325
rradius 114.688
rwrist -59.1669
rhand -6.79459 -47.1185
rfingers 7.12502
rthumb 19.0684 -76.2037
lclavicle -2.78299e-015 -1.82882e-014
lhumerus 35.1505 36.0139 -4.25796
lradius 30.7656
lwrist 35.5705
lhand -22.4469 -20.081
lfingers 7.12502
lthumb 3.97725 9.86166
rfemur -11.3926 5.06108 -8.07128
rtibia 23.9194
rfoot -0.177648 -32.2976
rtoes 10.8247
lfemur -17.1987 3.4734 -34.1902
ltibia 12.6913
lfoot -13.5706 6.70619
ltoes 20.1764
152
root -0.59841 17.4269 5.39483 -6.01146 -82.3258 23.6503
lowerback -9.05658 2.12731 7.71455
upperback -11.4735 1.90954 -0.664415
thorax -6.82796 0.0798615 -4.92361
lowerneck -6.35222 17.268 12.6874
upperneck 15.4063 21.5248 2.21394
head 6.87189 11.2472 0.709171
rclavicle -1.07344e-014 -2.3059e-014
rhumerus 9.10439 -24.1064 17.6533
rradius 114.685
rwrist -59.348
rhand -6.86292 -47.6045
rfingers 7.12502
rthumb 19.0027 -76.6963
lclavicle -1.07344e-014 -2.3059e-014
lhumerus 35.1539 36.1459 -4.11379
lradius 30.818
lwrist 35.3287
lhand -22.1429 -19.7456
lfingers 7.12502
lthumb 4.27074 10.1913
rfemur -11.5273 5.034 -8.10616
rtibia 24.15
rfoot 1.45519 -32.3547
rtoes 7.52734
lfemur -17.2904 3.59308 -34.2991
ltibia 12.8367
lfoot -13.6404 6.56573
ltoes 20.4321
153
root -0.591313 17.4298 5.39863 -5.17793 -82.3151 22.7764
lowerback -8.99089 2.12627 7.71981
upperback -11.4743 1.9185 -0.581575
thorax -6.86647 0.086687 -4.83919
lowerneck -6.21836 17.2454 12.6927
upperneck 15.3904 21.5336 2.09689
head 6.8589 11.2443 0.662809
rclavicle 1.05356e-014 1.59028e-015
rhumerus 9.18215 -24.089 17.5777
rradius 114.75
rwrist -59.4183
rhand -6.60823 -48.2278
rfingers 7.12502
rthumb 19.2476 -77.2954
lclavicle 1.05356e-014 1.59028e-015
lhumerus 35.2554 36.2379 -3.89386
lradius 30.8548
lwrist 35.0768
lhand -21.8074 -19.1858
lfingers 7.12502
lthumb 4.59473 10.7444
rfemur -11.6719 4.84938 -7.94606
rtibia 24.3744
rfoot 2.69439 -32.3172
rtoes 5.01622
lfemur -17.3599 3.49875 -34.1632
ltibia 12.9828
lfoot -13.7911 6.54193
ltoes 21.414
154
root -0.585377 17.4322 5.40043 -4.60545 -82.3295 22.1373
lowerback -8.92335 2.10734 7.61501
upperback -11.4598 1.91129 -0.428928
thorax -6.89305 0.0984825 -4.61913
lowerneck -6.09743 17.2629 12.8275
upperneck 15.3755 21.5929 1.89921
head 6.87447 11.2659 0.588186
rclavicle -2.04748e-014 -3.97569e-015
rhumerus 9.36659 -24.0572 17.4753
rradius 114.8
rwrist -59.2795
rhand -6.74095 -48.8673
rfingers 7.12502
rthumb 19.1199 -77.9475
lclavicle -2.04748e-014 -3.97569e-015
lhumerus 35.1276 36.2394 -3.75896
lradius 30.8849
lwrist 34.8293
lhand -21.6751 -19.3169
lfingers 7.12502
lthumb 4.72248 10.6105
rfemur -11.7665 4.76353 -7.8121
rtibia 24.5339
rfoot 5.97647 -31.921
rtoes -1.04468
lfemur -17.4212 3.51956 -34.0728
ltibia 13.1823
lfoot -13.9843 6.44735
ltoes 22.3208
155
root -0.575086 17.4287 5.40903 -5.25325 -82.2717 22.7118
lowerback -8.82429 2.01818 7.4563
upperback -11.4385 1.81619 -0.265117
thorax -6.9423 0.0704689 -4.36119
lowerneck -5.88305 17.3497 13.0584
upperneck 15.3215 21.7898 1.47825
head 6.90498 11.3426 0.446304
rclavicle -1.59028e-015 1.98785e-014
rhumerus 9.79796 -24.0683 17.2584
rradius 114.597
rwrist -59.0791
rhand -7.14466 -49.7811
rfingers 7.12502
rthumb 18.7317 -78.8992
lclavicle -1.59028e-015 1.98785e-014
lhumerus 34.687 36.2497 -3.7754
lradius 30.9967
lwrist 34.6788
lhand -21.4734 -20.4369
lfingers 7.12502
lthumb 4.91728 9.48606
rfemur -11.7678 4.62335 -7.93671
rtibia 24.6103
rfoot 7.50142 -31.5465
rtoes -3.41409
lfemur -17.5062 3.55612 -34.2153
ltibia 13.4596
lfoot -14.0874 6.37244
ltoes 22.2164
156
root -0.564894 17.4224 5.42127 -5.61855 -82.186 23.0084
lowerback -8.74746 1.97126 7.47485
upperback -11.4067 1.76499 -0.201658
thorax -6.95825 0.0482361 -4.30731
lowerneck -5.64206 17.3195 13.115
upperneck 15.1054 21.8361 1.1416
head 6.84131 11.3434 0.315281
rclavicle -6.36111e-015 2.3059e-014
rhumerus 10.0312 -23.982 17.0661
rradius 114.549
rwrist -59.0009
rhand -7.73895 -50.5037
rfingers 7.12502
rthumb 18.16 -79.676
lclavicle -6.36111e-015 2.3059e-014
lhumerus 34.4104 36.2333 -3.8173
lradius 31.0336
lwrist 34.7375
lhand -21.2739 -21.3649
lfingers 7.12502
lthumb 5.10991 8.5535
rfemur -11.7083 4.66172 -8.10586
rtibia 24.6572
rfoot 0.452656 -32.4442
rtoes 10.095
lfemur -17.6075 3.61022 -34.3433
ltibia 13.7486
lfoot -14.0998 6.30881
ltoes 21.3774
157
root -0.558397 17.4173 5.43138 -5.08817 -82.1343 22.4501
lowerback -8.75635 1.99503 7.67061
upperback -11.3702 1.7885 -0.240479
thorax -6.9082 0.0475872 -4.45708
lowerneck -5.58411 17.2201 12.996
upperneck 15.0182 21.7124 1.19249
head 6.77739 11.2815 0.315831
rclavicle -2.22639e-014 6.36111e-015
rhumerus 9.92645 -23.8531 16.8932
rradius 114.856
rwrist -59.1437
rhand -8.59653 -51.5124
rfingers 7.12502
rthumb 17.3348 -80.7594
lclavicle -2.22639e-014 6.36111e-015
lhumerus 34.3249 36.1115 -3.95492
lradius 31.0582
lwrist 34.9681
lhand -21.3296 -21.1157
lfingers 7.12502
lthumb 5.05613 8.80394
rfemur -11.6843 4.84901 -8.13291
rtibia 24.7028
rfoot -8.48195 -31.7809
rtoes 25.2717
lfemur -17.7223 3.6771 -34.3402
ltibia 13.9761
lfoot -14.1885 6.19654
ltoes 21.3092
